<?xml version="1.0" encoding="utf-8"?>
<!-- Generator: Adobe Illustrator 18.0.0, SVG Export Plug-In . SVG Version: 6.00 Build 0)  -->
<!DOCTYPE svg PUBLIC "-//W3C//DTD SVG 1.1//EN" "http://www.w3.org/Graphics/SVG/1.1/DTD/svg11.dtd">
<svg version="1.1" id="Layer_1" xmlns="http://www.w3.org/2000/svg" xmlns:xlink="http://www.w3.org/1999/xlink" x="0px" y="0px"
	 viewBox="0 0 40 40" enable-background="new 0 0 40 40" xml:space="preserve">
<g>
	<title>store</title>
	<g id="Calque_2_4_">
		<g id="Calque_1-2_3_">
			<path fill="#4D4D4D" d="M4.8,18.6H4.4c-2.4,0-4.4-2-4.4-4.4V9.3c0-0.4,0.3-0.8,0.7-0.8c0,0,0.1,0,0.1,0h7.6
				c0.4,0,0.8,0.3,0.8,0.7c0,0,0,0.1,0,0.1v4.9C9.3,16.6,7.3,18.6,4.8,18.6z M1.7,10.1v4c0,1.5,1.2,2.7,2.8,2.7h0h0.4
				c1.5,0,2.7-1.2,2.7-2.7v-4H1.7z"/>
			<path fill="#4D4D4D" d="M12.4,18.6H12c-2.4,0-4.4-2-4.4-4.4V9.3c0-0.4,0.3-0.8,0.7-0.8c0,0,0.1,0,0.1,0H16c0.4,0,0.8,0.3,0.8,0.7
				c0,0,0,0.1,0,0.1v4.9C16.8,16.6,14.9,18.6,12.4,18.6z M9.3,10.1v4c0,1.5,1.2,2.7,2.7,2.7h0.4c1.5,0,2.7-1.2,2.7-2.7v-4H9.3z"/>
			<path fill="#4D4D4D" d="M20,18.6h-0.4c-2.4,0-4.4-2-4.4-4.4V9.3c0-0.4,0.3-0.8,0.7-0.8c0,0,0.1,0,0.1,0h7.6
				c0.4,0,0.8,0.3,0.8,0.7c0,0,0,0.1,0,0.1v4.9C24.4,16.6,22.5,18.6,20,18.6z M16.9,10.1v4c0,1.5,1.2,2.7,2.7,2.7H20
				c1.5,0,2.7-1.2,2.7-2.7v-4H16.9z"/>
			<path fill="#4D4D4D" d="M27.6,18.6h-0.4c-2.4,0-4.4-2-4.4-4.4V9.3c0-0.4,0.3-0.8,0.7-0.8c0,0,0.1,0,0.1,0h7.6
				c0.4,0,0.8,0.3,0.8,0.7c0,0,0,0.1,0,0.1v4.9C32,16.6,30,18.6,27.6,18.6z M24.5,10.1v4c0,1.5,1.2,2.7,2.7,2.7h0.4
				c1.5,0,2.7-1.2,2.7-2.7v-4H24.5z"/>
			<path fill="#4D4D4D" d="M35.2,18.6h-0.4c-2.4,0-4.4-2-4.4-4.4V9.3c0-0.4,0.3-0.8,0.7-0.8c0,0,0.1,0,0.1,0h7.6
				c0.4,0,0.8,0.3,0.8,0.7c0,0,0,0.1,0,0.1v4.9C39.6,16.6,37.6,18.6,35.2,18.6z M32,10.1v4c0,1.5,1.2,2.7,2.7,2.7h0.4
				c1.5,0,2.7-1.2,2.7-2.7v-4H32z"/>
			<path fill="#4D4D4D" d="M39.2,10.1H1.2c-0.3,0-0.6-0.2-0.8-0.4C0.3,9.4,0.3,9.1,0.5,8.9l5.7-8.4C6.4,0.2,6.6,0,6.9,0h26.6
				c0.3,0,0.5,0.1,0.7,0.3l5.7,8.4C39.9,9,40,9.3,39.9,9.6C39.8,9.9,39.5,10.1,39.2,10.1z M32.2,8.4h5.4L33,1.7h-3.6L32.2,8.4z
				 M24.7,8.4h5.6l-2.7-6.7h-3.8L24.7,8.4z M17.3,8.4H23L22,1.7h-3.9L17.3,8.4z M10.1,8.4h5.6l0.9-6.7h-3.8L10.1,8.4z M2.8,8.4h5.4
				l2.7-6.7H7.3L2.8,8.4z"/>
			<polygon fill="#4D4D4D" points="36.3,39.6 4.2,39.6 4.2,17.7 5.9,17.7 5.9,37.9 34.6,37.9 34.6,17.7 36.3,17.7 			"/>
			<path fill="#4D4D4D" d="M31.2,39.6h-8.4V24.5h8.4V39.6z M24.5,37.9h5.1V26.1h-5.1V37.9z"/>
		</g>
	</g>
</g>
</svg>
