<?xml version="1.0" encoding="utf-8"?>
<!-- Generator: Adobe Illustrator 18.0.0, SVG Export Plug-In . SVG Version: 6.00 Build 0)  -->
<!DOCTYPE svg PUBLIC "-//W3C//DTD SVG 1.1//EN" "http://www.w3.org/Graphics/SVG/1.1/DTD/svg11.dtd">
<svg version="1.1" id="Layer_1" xmlns="http://www.w3.org/2000/svg" xmlns:xlink="http://www.w3.org/1999/xlink" x="0px" y="0px"
	 viewBox="0 0 40 40" enable-background="new 0 0 40 40" xml:space="preserve">
<g>
	<title>website</title>
	<g id="Calque_2_6_">
		<g id="Calque_1-2_4_">
			<path d="M37.9,4.9H2.2C1,4.9,0,5.9,0,7.1V33c0,1.2,1,2.2,2.2,2.2h35.7c1.2,0,2.2-1,2.2-2.2V7.1C40,5.9,39.1,4.9,37.9,4.9z
				 M2.3,6.1h35.6c0.6,0,1,0.4,1,1c0,0,0,0,0,0v2.3H1.2V7.1C1.3,6.6,1.7,6.1,2.3,6.1z M37.8,33.9H2.2c-0.6,0-1-0.4-1-1c0,0,0,0,0,0
				V10.6h37.6v22.3C38.8,33.5,38.4,33.9,37.8,33.9z"/>
			<path d="M12.9,8.2h15.5c0.3,0,0.6-0.3,0.6-0.6S28.7,7,28.4,7H12.9c-0.3,0-0.6,0.3-0.6,0.6c0,0,0,0,0,0
				C12.3,7.9,12.5,8.2,12.9,8.2z"/>
			<circle cx="2.7" cy="7.7" r="0.6"/>
			<circle cx="4.5" cy="7.7" r="0.6"/>
			<circle cx="6.5" cy="7.7" r="0.6"/>
			<path d="M33,13.9H18c-0.3-0.1-0.5,0.2-0.5,0.5s0.2,0.5,0.5,0.8h15c0.3-0.2,0.5-0.5,0.5-0.8C33.4,14.1,33.2,13.8,33,13.9z"/>
			<path d="M33,16.8H18c-0.3-0.1-0.5,0.2-0.5,0.5s0.2,0.5,0.5,0.8h15c0.3-0.2,0.5-0.5,0.5-0.8C33.5,16.9,33.3,16.7,33,16.8z"/>
			<path d="M33,19.6H18c-0.3-0.1-0.5,0.2-0.5,0.5c0,0.3,0.2,0.5,0.5,0.8h0h15c0.3-0.2,0.5-0.5,0.5-0.8C33.4,19.8,33.2,19.6,33,19.6z
				"/>
			<path d="M7.6,21.3h6.8c0.6,0,1.1-0.5,1.1-1.1c0,0,0,0,0,0v-5.5c0-0.6-0.5-1.1-1.1-1.1c0,0,0,0,0,0H7.6c-0.6,0-1.1,0.5-1.1,1.1
				c0,0,0,0,0,0v5.5C6.6,20.8,7,21.2,7.6,21.3z"/>
			<path d="M21.9,29.4H7c-0.3-0.1-0.5,0.1-0.5,0.4c0,0.3,0.2,0.5,0.5,0.8h15c0.3-0.3,0.5-0.5,0.5-0.8C22.4,29.6,22.2,29.4,21.9,29.4
				z"/>
			<path d="M21.9,26.6H7c-0.3-0.1-0.5,0.1-0.5,0.4c0,0.3,0.2,0.5,0.5,0.8h0h15c0.3-0.3,0.5-0.5,0.5-0.8
				C22.4,26.7,22.2,26.5,21.9,26.6z"/>
			<path d="M21.9,23.7H7c-0.3-0.1-0.5,0.1-0.5,0.4c0,0.3,0.2,0.5,0.5,0.8h0h15c0.3-0.3,0.5-0.5,0.5-0.8
				C22.4,23.9,22.2,23.6,21.9,23.7z"/>
			<path d="M32.5,23.3h-6.8c-0.6,0-1.1,0.5-1.1,1.1c0,0,0,0,0,0V30c0,0.6,0.5,1.1,1.1,1.1c0,0,0,0,0,0h6.8c0.6,0,1.1-0.5,1.1-1.1
				c0,0,0,0,0,0v-5.5C33.5,23.8,33.1,23.3,32.5,23.3C32.5,23.3,32.5,23.3,32.5,23.3z"/>
		</g>
	</g>
</g>
</svg>
