<?xml version="1.0" encoding="utf-8"?>
<!-- Generator: Adobe Illustrator 18.0.0, SVG Export Plug-In . SVG Version: 6.00 Build 0)  -->
<!DOCTYPE svg PUBLIC "-//W3C//DTD SVG 1.1//EN" "http://www.w3.org/Graphics/SVG/1.1/DTD/svg11.dtd">
<svg version="1.1" id="Layer_1" xmlns="http://www.w3.org/2000/svg" xmlns:xlink="http://www.w3.org/1999/xlink" x="0px" y="0px"
	 viewBox="0 0 40 40" enable-background="new 0 0 40 40" xml:space="preserve">
<g>
	<title>liamonecoder</title>
	<g id="Calque_2_5_">
		<g id="Calque_1-2_1_">
			<path d="M39.4,10.7H0.7c-0.3,0-0.6,0.2-0.7,0.6c0,0,0,0.1,0,0.1v28C0,39.7,0.3,40,0.6,40c0,0,0.1,0,0.1,0h38.6
				c0.3,0,0.6-0.2,0.7-0.6c0,0,0-0.1,0-0.1v-28C40.1,11,39.8,10.7,39.4,10.7C39.4,10.7,39.4,10.7,39.4,10.7z M38.7,12v4H1.4v-4H38.7
				z M1.4,38.7V17.3h37.3v21.3H1.4z M16.5,21.6l-6.6,6.6l6.6,6.6c0.3,0.3,0.3,0.7,0,0.9c-0.3,0.3-0.7,0.3-0.9,0l-7.1-7.1
				c-0.3-0.3-0.3-0.7,0-0.9l7.1-7.1c0.2-0.3,0.6-0.4,0.9-0.1c0.3,0.2,0.4,0.6,0.1,0.9C16.6,21.5,16.5,21.5,16.5,21.6z M32.2,27.7
				c0.3,0.3,0.3,0.7,0,0.9l-7.1,7.1c-0.3,0.3-0.7,0.3-0.9,0c-0.3-0.3-0.3-0.7,0-0.9l6.6-6.6l-6.6-6.6c-0.3-0.2-0.4-0.6-0.1-0.9
				c0.2-0.3,0.6-0.4,0.9-0.1c0.1,0,0.1,0.1,0.1,0.1L32.2,27.7z M22.7,21.5l-3.3,14C19.3,35.8,19,36,18.7,36h-0.1
				c-0.3-0.1-0.6-0.5-0.5-0.8l3.3-14c0.1-0.3,0.5-0.6,0.8-0.5C22.5,20.7,22.7,21.1,22.7,21.5z M3.7,14.3c0-0.5,0.4-1,1-1
				c0,0,0,0,0,0c0.5,0,1,0.5,0.9,1c0,0.5-0.4,1-1,1c0,0,0,0,0,0C4.1,15.3,3.7,14.9,3.7,14.3C3.7,14.4,3.7,14.4,3.7,14.3z M6.7,14.3
				c0-0.6,0.5-1.1,1.1-1.1s1.1,0.5,1.1,1.1s-0.5,1.1-1.1,1.1C7.2,15.4,6.7,14.9,6.7,14.3C6.7,14.3,6.7,14.3,6.7,14.3z M10.1,14.3
				c0-0.6,0.5-1.1,1.1-1.1s1.1,0.5,1.1,1.1s-0.5,1.1-1.1,1.1C10.5,15.4,10.1,14.9,10.1,14.3C10.1,14.3,10.1,14.3,10.1,14.3z"/>
		</g>
	</g>
</g>
</svg>
