<?xml version="1.0" encoding="utf-8"?>
<!-- Generator: Adobe Illustrator 18.0.0, SVG Export Plug-In . SVG Version: 6.00 Build 0)  -->
<!DOCTYPE svg PUBLIC "-//W3C//DTD SVG 1.1//EN" "http://www.w3.org/Graphics/SVG/1.1/DTD/svg11.dtd">
<svg version="1.1" id="Layer_1" xmlns="http://www.w3.org/2000/svg" xmlns:xlink="http://www.w3.org/1999/xlink" x="0px" y="0px"
	 viewBox="0 0 40 40" enable-background="new 0 0 40 40" xml:space="preserve">
<g>
	<title>liamonecontent3</title>
	<g id="Calque_2_15_">
		<g id="Calque_1-2_6_">
			<g id="Calque_2-2_3_">
				<g id="Calque_1-2-2_3_">
					<path d="M1.4,23.3c0.1,0.5,0.3,0.9,0.6,1.3l-0.4,0.4c-0.3,0.3-0.3,0.8,0,1.2L3,27.8c0.2,0.1,0.4,0.2,0.6,0.2l0,0
						c0.2,0,0.4-0.1,0.6-0.2l0.4-0.4C5,27.7,5.4,27.9,5.9,28v0.5c0,0.4,0.4,0.8,0.8,0.8l0,0H9c0.2,0,0.4-0.1,0.6-0.2
						c0.1-0.2,0.2-0.4,0.2-0.6v-0.6c0.5-0.1,0.9-0.3,1.4-0.6l0.4,0.4c0.2,0.1,0.4,0.2,0.6,0.2l0,0c0.2,0,0.4-0.1,0.6-0.2l1.6-1.5
						c0.3-0.3,0.3-0.8,0-1.1l-0.4-0.4c0.2-0.4,0.4-0.9,0.6-1.3h0.4c0.2,0,0.4-0.1,0.6-0.2c0.1-0.2,0.2-0.4,0.2-0.6v-2.3
						c0-0.5-0.4-0.8-0.8-0.8h-0.6c-0.1-0.5-0.3-1-0.6-1.4l0.4-0.4c0.3-0.3,0.3-0.9,0-1.2l-1.5-1.7c-0.2-0.1-0.4-0.2-0.6-0.2l0,0
						c-0.2,0-0.4,0.1-0.6,0.2l-0.4,0.4c-0.4-0.2-0.9-0.4-1.3-0.6v-0.2c0-0.4-0.3-0.8-0.7-0.8c0,0,0,0,0,0H6.7
						c-0.5,0-0.8,0.3-0.8,0.8v0.6c-0.5,0.1-0.9,0.3-1.4,0.6l-0.4-0.4c-0.2-0.1-0.4-0.2-0.6-0.2l0,0c-0.2,0-0.4,0.1-0.6,0.2l-1.6,1.5
						c-0.3,0.3-0.3,0.8,0,1.1l0.4,0.4c-0.2,0.4-0.4,0.9-0.6,1.3H0.8c-0.4,0-0.8,0.3-0.8,0.7c0,0,0,0.1,0,0.1v2.2
						c0,0.4,0.4,0.8,0.8,0.8L1.4,23.3z M0.9,20.4h0.8c0.3,0,0.6-0.3,0.8-0.6C2.6,19.4,2.8,19,3,18.6c0.2-0.3,0.1-0.7-0.1-0.9
						l-0.4-0.4l1.4-1.4l0.4,0.4c0.2,0.2,0.6,0.3,0.9,0.1c0.4-0.2,0.8-0.4,1.2-0.5c0.3-0.1,0.5-0.5,0.5-0.8v-0.6h2v0.7
						c0,0.3,0.2,0.6,0.6,0.8c0.4,0.1,0.8,0.3,1.2,0.5c0.3,0.2,0.7,0.1,0.9-0.1l0.4-0.4l1.5,1.4L13,17.7c-0.3,0.2-0.3,0.6-0.1,0.9
						c0.2,0.4,0.4,0.8,0.5,1.2c0.1,0.3,0.4,0.6,0.8,0.6h0.6v2H14c-0.3,0-0.6,0.3-0.8,0.6c-0.1,0.4-0.3,0.8-0.5,1.2
						c-0.2,0.3-0.1,0.7,0.1,0.9l0.4,0.4l-1.4,1.5l-0.5-0.4c-0.2-0.3-0.6-0.3-0.9-0.1c-0.4,0.2-0.8,0.4-1.2,0.5
						C9,27,8.8,27.4,8.8,27.7v0.5h-2v-0.4c0-0.4-0.2-0.7-0.6-0.8c-0.4-0.1-0.8-0.3-1.2-0.6c-0.3-0.2-0.7-0.1-1,0.1l-0.4,0.4
						l-1.5-1.5l0.4-0.4c0.3-0.3,0.3-0.6,0.1-1c-0.2-0.4-0.4-0.8-0.5-1.2c-0.1-0.4-0.4-0.6-0.8-0.6H0.9L0.9,20.4z"/>
					<path d="M8,25.3c0.6,0,1.1-0.1,1.7-0.4l0,0c2-0.9,2.8-3.3,1.8-5.2S8.2,17,6.2,17.9c-2,0.9-2.8,3.3-1.8,5.2
						c0.2,0.4,0.5,0.8,0.8,1.1C6,24.9,7,25.3,8,25.3z M5.3,20.3c0.5-1.1,1.6-1.8,2.8-1.8h0.2c1.7,0.1,2.9,1.6,2.8,3.2
						c-0.1,1.7-1.6,2.9-3.2,2.8c-0.7-0.1-1.4-0.3-1.9-0.8C5,22.8,4.7,21.4,5.3,20.3z"/>
				</g>
			</g>
		</g>
	</g>
</g>
<g>
	<title>liamonecontent2</title>
	<g id="Calque_2_1_">
		<g id="Calque_1-2_12_">
			<g id="Calque_2-2_4_">
				<g id="Calque_1-2-2_4_">
					<path d="M39.5,14.5H19.2c-0.3,0-0.5,0.1-0.6,0.4s0.2,0.5,0.4,0.6h20.4c0.3,0,0.5-0.2,0.5-0.4c0,0,0,0,0-0.1
						C39.9,14.8,39.7,14.5,39.5,14.5z"/>
					<path d="M39.5,19.4H19.2c-0.3,0-0.5,0.2-0.6,0.4c0,0.3,0.1,0.5,0.4,0.6h20.4c0.3,0,0.5-0.2,0.5-0.4c0,0,0,0,0-0.1
						C39.9,19.6,39.7,19.4,39.5,19.4z"/>
					<path d="M39.5,24.3H19.2c-0.3,0-0.5,0.2-0.6,0.4c0,0.3,0.1,0.5,0.4,0.6h20.4c0.3,0,0.5-0.2,0.5-0.4c0,0,0,0,0-0.1
						C39.9,24.5,39.7,24.3,39.5,24.3z"/>
					<path d="M39.5,29.2H19.2c-0.3,0-0.5,0.2-0.6,0.4c0,0.3,0.1,0.5,0.4,0.6h20.4c0.3,0,0.5-0.2,0.5-0.4c0,0,0,0,0-0.1
						C39.9,29.4,39.7,29.2,39.5,29.2z"/>
					<path d="M39.4,36.6L35,34.1H1.4c-0.2,0-0.4,0.2-0.4,0.4c0,0,0,0,0,0.1v5C1,39.8,1.1,40,1.4,40c0,0,0,0,0,0l33.3,0
						c0,0,0.1,0,0.1,0h0.1l4.4-2.6c0.1-0.1,0.2-0.2,0.2-0.4C39.6,36.9,39.5,36.7,39.4,36.6z M34.3,39H4.9v-3.9h29.4L34.3,39z
						 M35.3,35.1l2,1v2l-2,1V35.1z M2,35.1h2V39H2V35.1z"/>
				</g>
			</g>
		</g>
	</g>
</g>
</svg>
