<?xml version="1.0" encoding="utf-8"?>
<!-- Generator: Adobe Illustrator 18.0.0, SVG Export Plug-In . SVG Version: 6.00 Build 0)  -->
<!DOCTYPE svg PUBLIC "-//W3C//DTD SVG 1.1//EN" "http://www.w3.org/Graphics/SVG/1.1/DTD/svg11.dtd">
<svg version="1.1" id="Layer_1" xmlns="http://www.w3.org/2000/svg" xmlns:xlink="http://www.w3.org/1999/xlink" x="0px" y="0px"
	 viewBox="0 0 40 40" enable-background="new 0 0 40 40" xml:space="preserve">
<g>
	<title>liamonescalable</title>
	<g id="Calque_2_13_">
		<g id="Calque_1-2_10_">
			<path d="M40,6.9V0h-6.8v2.7H6.8V0H0v6.9h2.7v26.3H0V40h6.8v-2.7h26.5V40H40v-6.8h-2.7V6.9H40z M1.4,5.4V1.6h3.8v3.8H1.4z
				 M5.2,38.6H1.4v-3.8h3.8V38.6z M33.1,35.9H6.8v-2.7H4.1V6.9h2.7V4.3h26.3v2.7h2.7v26.3h-2.7L33.1,35.9L33.1,35.9z M38.4,34.8v3.8
				h-3.8v-3.8L38.4,34.8z M34.6,5.4V1.6h3.8v3.8H34.6z"/>
		</g>
	</g>
</g>
</svg>
