<?xml version="1.0" encoding="utf-8"?>
<!-- Generator: Adobe Illustrator 18.0.0, SVG Export Plug-In . SVG Version: 6.00 Build 0)  -->
<!DOCTYPE svg PUBLIC "-//W3C//DTD SVG 1.1//EN" "http://www.w3.org/Graphics/SVG/1.1/DTD/svg11.dtd">
<svg version="1.1" id="Layer_1" xmlns="http://www.w3.org/2000/svg" xmlns:xlink="http://www.w3.org/1999/xlink" x="0px" y="0px"
	 viewBox="0 0 77 77" enable-background="new 0 0 77 77" xml:space="preserve">
<path fill="#FFC200" enable-background="new    " d="M55.5,45.4c-1.5,0-5.3-0.5-8.5-5.3l0,0c0-0.1,0-0.1,0-0.1
	c-0.7-1.1-2-2.3-2.9-2.3c-0.7,0-1.6,0.7-2.4,1.8l-0.2,0.4c-0.3,0.6-3.4,5.6-8.5,5.6c-1.5,0-5.3-0.5-8.5-5.3l0,0c0-0.1,0-0.1,0-0.1
	c-0.7-1.1-2-2.3-2.9-2.3c-0.9,0-2,1.1-2.8,2.2l0,0c-0.5,0.9-3.5,5.5-8.4,5.5c-1.5,0-5.2-0.5-8.4-5.3l-1.7-2.4l5.5-3.5L7,35.6
	C7.2,35.8,7.3,36,7.4,36c0.7,1.1,2,2.3,2.9,2.3c0.9,0,2-1.1,2.8-2.2c0-0.1,0-0.1,0.1-0.2c1-1.7,3.9-5.4,8.3-5.4
	c1.5,0,5.3,0.5,8.5,5.3l0,0c0,0,0,0.1,0,0.1c0.7,1.1,2,2.3,2.9,2.3c0.7,0,1.6-0.7,2.4-1.8l0.2-0.4c0.3-0.6,3.4-5.6,8.5-5.6
	c1.5,0,5.3,0.5,8.5,5.3l0,0c0,0.1,0,0.1,0,0.1c0.7,1.1,2,2.3,2.9,2.3c0.9,0,2-1.1,2.8-2.2l0,0c0.5-0.9,3.5-5.5,8.4-5.5
	c1.5,0,5.3,0.5,8.5,5.3l1.7,2.4l-5.5,3.5l-1.5-1.5c-0.1-0.2-0.3-0.4-0.3-0.4c-0.7-1.1-2-2.3-2.9-2.3c-0.9,0-2,1.1-2.8,2.2
	c0,0,0,0.1,0,0.1C63.2,41.2,60.2,45.4,55.5,45.4z"/>
</svg>
