<?xml version="1.0" encoding="utf-8"?>
<!-- Generator: Adobe Illustrator 18.0.0, SVG Export Plug-In . SVG Version: 6.00 Build 0)  -->
<!DOCTYPE svg PUBLIC "-//W3C//DTD SVG 1.1//EN" "http://www.w3.org/Graphics/SVG/1.1/DTD/svg11.dtd">
<svg version="1.1" id="Layer_1" xmlns="http://www.w3.org/2000/svg" xmlns:xlink="http://www.w3.org/1999/xlink" x="0px" y="0px"
	 viewBox="0 0 40 40" enable-background="new 0 0 40 40" xml:space="preserve">
<g>
	<title>pen-ruler</title>
	<g id="Calque_2_18_">
		<g id="Calque_1-2_15_">
			<path fill="#4D4D4D" d="M23.8,7.1l-0.2-0.2l-0.4,0.4c-0.2,0.2-0.4,0.2-0.6,0c0,0,0,0,0,0l-1.7-1.7c-0.2-0.2-0.2-0.4,0-0.6
				c0,0,0,0,0,0l0.4-0.4L21,4.3c-0.2-0.2-0.6-0.2-0.8,0l-1.7,1.7l0.4,0.4c0.2,0.2,0.2,0.4,0,0.6c-0.2,0.2-0.4,0.2-0.6,0l0,0
				l-0.4-0.4L3.7,20.9l0,0l-0.1,0L3.5,21l0,0l-3.2,6c-0.2,0.3,0,0.6,0.2,0.8c0.1,0,0.2,0.1,0.2,0.1c0.1,0,0.2,0,0.3-0.1l6-3.2
				c0,0,0.1,0,0.1-0.1c0,0,0,0,0.1-0.1l0,0L23.8,7.9C24,7.7,24,7.3,23.8,7.1z M2.3,25.9l1.9-3.6l1.7,1.7L2.3,25.9z M6.8,23.3
				l-1.9-1.9L20.6,5.6l1.9,1.9L6.8,23.3z M22.9,6.3l-1.1-1.1l-0.6-0.6L20.9,5c-0.2,0.2-0.2,0.4,0,0.6c0,0,0,0,0,0l1.7,1.7
				c0.2,0.2,0.4,0.2,0.6,0c0,0,0,0,0,0l0.4-0.4L22.9,6.3z M18.9,6.5l-0.4-0.4l-0.6,0.6l0.4,0.4c0.2,0.2,0.4,0.2,0.6,0
				C19.1,6.9,19.1,6.7,18.9,6.5z M19,6.5l-1.6-1.6c-0.2-0.2-0.4-0.2-0.6,0c0,0,0,0,0,0l-6.5,6.5c-0.2,0.2-0.2,0.4,0,0.6
				c0.1,0.1,0.2,0.1,0.3,0.1c0.1,0,0.2,0,0.3-0.1l6.1-6.1L18,6.7l0.4,0.4c0.2,0.2,0.4,0.2,0.6,0C19.2,6.9,19.2,6.6,19,6.5L19,6.5z
				 M21.9,5.2l-0.1,0.1l1,1l0.1-0.1L21.9,5.2z M25.1,4.7L23.5,3c-0.2-0.2-0.4-0.2-0.6,0c0,0,0,0,0,0l-1.6,1.6L20.9,5
				c-0.2,0.2-0.2,0.4,0,0.6c0,0,0,0,0,0l1.7,1.7c0.2,0.2,0.4,0.2,0.6,0c0,0,0,0,0,0l0.4-0.4l1.6-1.6C25.3,5.1,25.3,4.8,25.1,4.7z
				 M22.9,6.3l-1.1-1.1l1.3-1.3L24.2,5L22.9,6.3z M36.9,9.4c-0.2-0.1-0.4,0.1-0.4,0.4s0.2,0.4,0.4,0.6h2v-1H36.9z M36.9,15.2
				c-0.2,0-0.4,0.2-0.4,0.4c0,0.2,0.2,0.4,0.4,0.6h2v-1H36.9z M37,21c-0.3,0-0.5,0.2-0.5,0.4s0.2,0.4,0.4,0.6h2v-1L37,21L37,21z
				 M37,26.8c-0.3,0-0.5,0.2-0.5,0.4c0,0.2,0.2,0.4,0.4,0.6h2v-1L37,26.8L37,26.8z M36.9,32.8c-0.2,0-0.4,0.2-0.4,0.5
				c0,0.2,0.2,0.4,0.4,0.4h2v-0.8L36.9,32.8z M9.9,36.4c-0.2,0-0.4,0.2-0.6,0.4V39h1v-2.2C10.3,36.6,10.1,36.4,9.9,36.4z M15.6,36.6
				c-0.3,0-0.5,0.2-0.5,0.4v2h1v-2C16.1,36.8,15.9,36.6,15.6,36.6C15.6,36.6,15.6,36.6,15.6,36.6L15.6,36.6z M21.4,36.6
				c-0.3,0-0.5,0.2-0.5,0.4c0,0,0,0,0,0v2h1v-2C21.9,36.8,21.7,36.6,21.4,36.6L21.4,36.6L21.4,36.6z M27.4,36.6
				c-0.2-0.2-0.4,0-0.6,0.3l0,0V39h1v-2.2C27.8,36.6,27.7,36.4,27.4,36.6L27.4,36.6z M33,36.6c-0.2,0-0.4,0.2-0.4,0.4v2h1v-2
				C33.6,36.8,33.4,36.6,33,36.6L33,36.6z M31.4,20.2c-0.2-0.1-0.4,0-0.5,0.1L20.7,30.5c-0.2,0.2-0.2,0.4,0,0.6
				c0.1,0.1,0.2,0.1,0.3,0.1h10.2c0.2,0,0.4-0.2,0.4-0.4c0,0,0,0,0,0V20.6C31.6,20.4,31.5,20.2,31.4,20.2z M30.7,30.8h-8.7l8.7-8.8
				V30.8z M36.9,32.7c-0.2,0-0.4,0.3-0.4,0.5c0,0.2,0.2,0.4,0.4,0.5h2v-1H36.9z M37,26.9c-0.2,0-0.4,0.2-0.4,0.5s0.2,0.5,0.4,0.5
				h1.9v-1L37,26.9L37,26.9z M37,21.1c-0.2,0-0.4,0.2-0.4,0.5S36.7,22,37,22h1.9v-1L37,21.1L37,21.1z M36.9,15.3
				c-0.2,0-0.4,0.2-0.4,0.4c0,0.2,0.2,0.4,0.4,0.4h2v-0.9L36.9,15.3z M36.9,9.5c-0.2,0-0.4,0.2-0.4,0.4s0.2,0.4,0.4,0.4h2V9.5
				L36.9,9.5z M33.3,36.4c-0.2,0-0.4,0.2-0.7,0.4V39h1v-2.2C33.7,36.6,33.5,36.4,33.3,36.4z M31.4,20.2c-0.2-0.1-0.4,0-0.5,0.1
				L20.7,30.5c-0.2,0.2-0.2,0.4,0,0.6c0.1,0.1,0.2,0.1,0.3,0.1h10.2c0.2,0,0.4-0.2,0.4-0.4c0,0,0,0,0,0V20.6
				C31.6,20.4,31.5,20.2,31.4,20.2z M30.7,30.8h-8.7l8.7-8.8V30.8z M27.5,36.4c-0.2,0-0.4,0.2-0.7,0.4l0,0V39h1v-2.2
				C27.9,36.6,27.7,36.4,27.5,36.4z M21.6,36.4c-0.2,0-0.4,0.2-0.6,0.4l0,0V39h1v-2.2C22,36.6,21.8,36.4,21.6,36.4L21.6,36.4z
				 M15.8,36.6c-0.2-0.2-0.4,0-0.6,0.3V39h1v-2.2c0.1-0.2-0.1-0.4-0.3-0.4C15.8,36.4,15.8,36.4,15.8,36.6L15.8,36.6z M10,36.6
				c-0.2-0.2-0.4,0-0.6,0.3V39h1v-2.2c0.1-0.2-0.1-0.4-0.3-0.4C9.9,36.4,9.9,36.4,10,36.6L10,36.6z M36.9,32.7
				c-0.2,0-0.4,0.3-0.4,0.5c0,0.2,0.2,0.4,0.4,0.5h2v-1H36.9z M36.7,26.9c-0.3,0-0.5,0.2-0.5,0.5c0,0.3,0.2,0.5,0.5,0.5h2.2v-1
				L36.7,26.9L36.7,26.9z M36.7,21.1c-0.3,0-0.5,0.2-0.5,0.5c0,0.3,0.2,0.5,0.5,0.5h2.2v-1L36.7,21.1L36.7,21.1z M36.9,15.3
				c-0.2,0-0.4,0.2-0.4,0.4c0,0.2,0.2,0.4,0.4,0.4h2v-0.9L36.9,15.3z M36.9,9.5c-0.2,0-0.4,0.2-0.4,0.4s0.2,0.4,0.4,0.4h2V9.5
				L36.9,9.5z M33.3,36.4c-0.2,0-0.4,0.2-0.7,0.4V39h1v-2.2C33.7,36.6,33.5,36.4,33.3,36.4z M31.4,20.2c-0.2-0.1-0.4,0-0.5,0.1
				L20.7,30.5c-0.2,0.2-0.2,0.4,0,0.6c0.1,0.1,0.2,0.1,0.3,0.1h10.2c0.2,0,0.4-0.2,0.4-0.4c0,0,0,0,0,0V20.6
				C31.6,20.4,31.5,20.2,31.4,20.2z M30.7,30.8h-8.7l8.7-8.8V30.8z M27.5,36.4c-0.2,0-0.4,0.2-0.7,0.4l0,0V39h1v-2.2
				C27.9,36.6,27.7,36.4,27.5,36.4z M21.6,36.4c-0.2,0-0.4,0.2-0.6,0.4l0,0V39h1v-2.2C22,36.6,21.8,36.4,21.6,36.4L21.6,36.4z
				 M15.8,36.6c-0.2-0.2-0.4,0-0.6,0.3V39h1v-2.2c0.1-0.2-0.1-0.4-0.3-0.4C15.8,36.4,15.8,36.4,15.8,36.6L15.8,36.6z M10,36.6
				c-0.2-0.2-0.4,0-0.6,0.3V39h1v-2.2c0.1-0.2-0.1-0.4-0.3-0.4C9.9,36.4,9.9,36.4,10,36.6L10,36.6z M39.5,0C39.3,0,39,0,38.9,0.2
				L0.2,39C0,39.2,0,39.4,0,39.6C0.1,39.8,0.3,40,0.6,40h38.7c0.3,0,0.6-0.3,0.6-0.6V0.6C39.9,0.3,39.7,0.1,39.5,0z M38.9,39H2.2
				L38.9,2.2V39z"/>
		</g>
	</g>
</g>
</svg>
