<?xml version="1.0" encoding="utf-8"?>
<!-- Generator: Adobe Illustrator 18.0.0, SVG Export Plug-In . SVG Version: 6.00 Build 0)  -->
<!DOCTYPE svg PUBLIC "-//W3C//DTD SVG 1.1//EN" "http://www.w3.org/Graphics/SVG/1.1/DTD/svg11.dtd">
<svg version="1.1" id="Layer_1" xmlns="http://www.w3.org/2000/svg" xmlns:xlink="http://www.w3.org/1999/xlink" x="0px" y="0px"
	 viewBox="0 0 40 40" enable-background="new 0 0 40 40" xml:space="preserve">
<g>
	<g>
		<path d="M11.3,10.2c0-0.4-0.3-0.7-0.7-0.7H2.5c-0.4,0-0.7,0.3-0.7,0.7s0.3,0.7,0.7,0.7h8.2C11,10.9,11.3,10.6,11.3,10.2z"/>
		<path d="M4.3,5l6.1,2.8c0.1,0,0.2,0,0.3,0c0.3,0,0.5-0.1,0.7-0.4c0.1-0.4,0-0.8-0.3-1L4.9,3.6c-0.4-0.1-0.8,0-1,0.3
			C3.8,4.4,3.9,4.8,4.3,5z"/>
		<path d="M11.3,13.2c-0.1-0.4-0.6-0.5-1-0.3l-6.1,2.8c-0.4,0.1-0.5,0.6-0.3,1c0.1,0.3,0.4,0.4,0.7,0.4c0.1,0,0.2,0,0.3,0l6.1-2.8
			C11.3,14,11.4,13.6,11.3,13.2z"/>
		<path d="M37.3,9.5h-8.2c-0.4,0-0.7,0.3-0.7,0.7s0.3,0.7,0.7,0.7h8.2c0.4,0,0.7-0.3,0.7-0.7S37.7,9.5,37.3,9.5z"/>
		<path d="M29.1,7.8c0.1,0,0.2,0,0.3,0L35.5,5c0.4-0.1,0.5-0.6,0.3-1c-0.1-0.4-0.6-0.5-1-0.3l-6.1,2.8c-0.4,0.1-0.5,0.6-0.3,1
			C28.6,7.7,28.8,7.8,29.1,7.8z"/>
		<path d="M35.5,15.7l-6.1-2.8c-0.4-0.1-0.8,0-1,0.3c-0.1,0.4,0,0.8,0.3,1l6.1,2.8c0.1,0,0.2,0,0.3,0c0.3,0,0.5-0.1,0.7-0.4
			C36,16.3,35.9,15.9,35.5,15.7z"/>
		<path d="M28.8,39H26l-1.8-24.3h1.3c0.4,0,0.7-0.3,0.7-0.7c0-0.4-0.3-0.7-0.7-0.7h-1.6V6.4c0-2.1-1.4-3.9-3.3-4.2V0.8
			c0-0.4-0.3-0.7-0.7-0.7s-0.7,0.3-0.7,0.7v1.4c-1.9,0.3-3.3,2.1-3.3,4.2v6.9h-1.6c-0.4,0-0.7,0.3-0.7,0.7c0,0.4,0.3,0.7,0.7,0.7
			h1.5L13.8,39H11c0,0-0.7,0.1-0.7,0.5c0,0.4,0.7,0.5,0.7,0.5h2.8h12.4h2.8c0,0,0.7-0.1,0.7-0.5C29.6,39.1,28.8,39,28.8,39z M17.2,8
			h5.7v5.2h-2.4v-2.1c0-0.4-0.3-0.7-0.7-0.7s-0.7,0.3-0.7,0.7v2.1h-1.9L17.2,8z M22.7,14.7l0.5,6.2h-6.5l0.5-6.2H22.7z M16.4,22.4h7
			l0.5,7.6h-8.1L16.4,22.4z M22.9,6.3v0.3h-5.7V6.2c0-1.7,1.6-3.1,3.5-2.8C22,3.7,22.9,5,22.9,6.3z M20.5,38.6h-1.4v-1.8
			c0-0.3,0.2-0.6,0.6-0.7c0.5-0.1,0.9,0.2,0.9,0.7L20.5,38.6L20.5,38.6z M22,39l0-1.8c0-0.8-0.5-1.6-1.2-2c-1.5-0.7-3.1,0.5-3.1,1.9
			V39h-2.6l0.5-7.6H24l0.6,7.6H22z"/>
	</g>
</g>
</svg>
