<?xml version="1.0" standalone="no"?>
<!DOCTYPE svg PUBLIC "-//W3C//DTD SVG 20010904//EN"
 "http://www.w3.org/TR/2001/REC-SVG-20010904/DTD/svg10.dtd">
<svg version="1.0" xmlns="http://www.w3.org/2000/svg"
 width="512.000000pt" height="512.000000pt" viewBox="0 0 512.000000 512.000000"
 preserveAspectRatio="xMidYMid meet">
<metadata>
Created by potrace 1.11, written by Peter Selinger 2001-2013
</metadata>
<g transform="translate(0.000000,512.000000) scale(0.100000,-0.100000)"
fill="#000000" stroke="none">
<path d="M3710 5045 c-124 -34 -221 -70 -347 -130 -548 -259 -807 -681 -803
-1305 1 -132 3 -156 16 -260 4 -36 7 -68 6 -72 -1 -5 0 -8 3 -8 3 0 14 20 24
44 32 73 72 160 81 176 5 8 19 35 31 60 93 186 333 537 506 740 119 139 163
190 163 185 0 -4 -33 -48 -73 -98 -123 -155 -276 -368 -344 -482 -157 -262
-267 -484 -313 -636 l-8 -26 97 30 c463 143 797 392 955 715 44 88 83 198 106
297 16 71 23 112 36 230 5 43 5 336 0 360 -2 11 -7 45 -10 75 -4 30 -8 64 -11
75 -2 11 -4 28 -4 38 -1 21 -6 21 -111 -8z m-299 -558 c-10 -9 -11 -8 -5 6 3
10 9 15 12 12 3 -3 0 -11 -7 -18z"/>
<path d="M1570 4655 c0 -2 -6 -28 -14 -58 -29 -111 -40 -374 -22 -510 10 -84
52 -221 89 -297 32 -64 105 -169 156 -223 66 -70 213 -176 316 -230 95 -49
253 -113 261 -105 2 3 -8 38 -22 79 -14 41 -27 79 -28 84 -2 6 -8 21 -13 35
-6 14 -21 50 -33 80 -59 150 -253 482 -378 648 -13 17 -22 32 -19 32 4 0 86
-106 165 -215 140 -194 333 -560 368 -699 10 -43 20 -16 38 103 29 196 11 450
-42 601 -86 245 -289 451 -573 584 -107 50 -249 102 -249 91z"/>
<path d="M2329 3156 c-2 -2 -30 -6 -62 -10 -32 -3 -62 -8 -65 -10 -4 -2 -23
-7 -42 -10 -97 -16 -240 -68 -348 -126 -254 -137 -439 -362 -515 -625 -34
-115 -42 -175 -41 -305 5 -469 321 -893 759 -1016 91 -26 290 -27 384 -3 93
24 209 80 262 128 l40 36 -18 48 c-15 41 -21 47 -48 48 -16 0 -38 2 -47 4
-185 36 -313 111 -394 232 -61 91 -92 199 -90 308 2 50 5 101 9 114 15 55 57
95 112 106 142 28 292 36 405 21 63 -9 197 -41 237 -58 126 -51 199 -95 277
-168 170 -158 267 -458 209 -649 -73 -245 -293 -474 -583 -610 -261 -121 -543
-158 -805 -106 -326 65 -633 330 -821 707 -26 51 -47 94 -49 95 -1 2 -23 -4
-48 -13 -39 -13 -46 -19 -43 -37 120 -607 514 -1039 1076 -1178 151 -37 214
-44 405 -44 180 1 243 8 400 45 420 99 807 355 1023 676 141 209 210 426 217
674 12 443 -159 874 -479 1208 -114 119 -262 238 -371 298 -190 105 -350 163
-550 201 -70 13 -386 28 -396 19z"/>
</g>
</svg>
